<!-- Generated by IcoMoon.io -->
<svg version="1.1" xmlns="http://www.w3.org/2000/svg" width="32" height="32" viewBox="0 0 32 32">
<title>setting</title>
<path d="M13.823 5.333c-0.328 0-0.544 0.217-0.544 0.544l-0.205 2.177c-0.978 0.328-1.858 0.876-2.619 1.531l-2.075-0.986c-0.217-0.111-0.536-0.013-0.647 0.205l-2.177 3.81c-0.217 0.328-0.225 0.672 0.102 0.783l1.838 1.293c-0.217 0.544-0.205 0.986-0.205 1.531s-0.009 0.986 0.102 1.531l-1.838 1.293c-0.217 0.111-0.319 0.455-0.102 0.783l2.177 3.81c0.217 0.217 0.531 0.315 0.748 0.205l2.075-0.885c0.761 0.655 1.642 1.097 2.619 1.531l0.205 2.177c0 0.328 0.217 0.544 0.544 0.544h4.355c0.328 0 0.544-0.217 0.544-0.544l0.205-2.177c0.978-0.328 1.858-0.876 2.619-1.531l2.075 0.885c0.217 0.111 0.536 0.013 0.647-0.205l2.177-3.81c0.111-0.217 0.114-0.566-0.102-0.783l-1.735-1.293c0.111-0.544 0.102-0.986 0.102-1.531s0.009-0.986-0.102-1.531l1.838-1.293c0.217-0.111 0.319-0.455 0.102-0.783l-2.177-3.81c-0.217-0.217-0.531-0.315-0.748-0.205l-2.075 0.885c-0.761-0.655-1.642-1.097-2.619-1.531l-0.205-2.177c0-0.217-0.217-0.442-0.544-0.442l-4.355-0.001zM16.001 10.777c3.049 0 5.443 2.394 5.443 5.443s-2.394 5.443-5.443 5.443c-3.049 0-5.443-2.394-5.443-5.443s2.394-5.443 5.443-5.443zM16.001 12.954c-1.85 0-3.266 1.416-3.266 3.266s1.416 3.266 3.266 3.266c1.85 0 3.266-1.416 3.266-3.266s-1.416-3.266-3.266-3.266z"></path>
</svg>
